<svg width="90" height="50" viewBox="0 0 90 50" fill="none" xmlns="http://www.w3.org/2000/svg">
<path d="M8.46488 18.8348L7.7583 22.6002L11.8025 18.8133L9.15747 33.1023L11.8438 33.1055L15.7512 12" fill="#3395FF"/>
<path d="M4.11256 27.0985L3 33.1056H8.5058L10.7587 20.8854L4.11256 27.0985ZM23.2377 21.8097C23.1031 22.534 22.8438 23.066 22.4571 23.4057C22.0714 23.7447 21.5299 23.9149 20.8309 23.9149H18.6103L19.39 19.7057H21.6106C22.3086 19.7057 22.7882 19.8746 23.0484 20.219C23.3086 20.5632 23.3714 21.0893 23.2377 21.8168V21.8097ZM25.5369 21.726C25.8195 20.206 25.7029 19.0368 25.186 18.2183C24.6702 17.4063 23.7649 16.9971 22.4729 16.9971H17.5171L14.5338 33.1128H16.9415L18.1437 26.6171H19.7229C20.0772 26.6171 20.3563 26.7016 20.56 26.8639C20.7641 27.0328 20.8839 27.3252 20.9206 27.7474L21.3505 33.1128H23.9299L23.5119 28.1112C23.4265 26.9938 23.0735 26.3378 22.4531 26.143C23.244 25.8117 23.9066 25.2595 24.4405 24.493C24.9706 23.7322 25.3493 22.7786 25.5369 21.7325V21.726ZM31.3894 27.3447C31.1876 28.4359 30.878 29.2609 30.4594 29.839C30.0405 30.4171 29.5398 30.7028 28.9557 30.7028C28.3609 30.7028 27.9576 30.4236 27.7444 29.8585C27.5309 29.2934 27.5238 28.4749 27.722 27.4031C27.9203 26.3313 28.2366 25.4934 28.6717 24.8892C29.1069 24.2853 29.6156 23.9831 30.1997 23.9831C30.7829 23.9831 31.1821 24.2755 31.384 24.8556C31.5904 25.4382 31.5948 26.2715 31.393 27.3564L31.3894 27.3447ZM32.4445 21.6415L32.143 23.2719C32.013 22.6873 31.7604 22.2196 31.3872 21.8688C31.0131 21.5246 30.5501 21.3492 29.9978 21.3492C29.3204 21.3492 28.6699 21.6025 28.0464 22.1092C27.4228 22.6158 26.8755 23.3303 26.4089 24.2528C25.9423 25.1751 25.6014 26.2208 25.3817 27.3966C25.1663 28.5788 25.1214 29.6116 25.2515 30.508C25.3861 31.411 25.6688 32.0994 26.1038 32.58C26.5435 33.0673 27.1043 33.3077 27.7906 33.3077C28.3361 33.3116 28.8754 33.1409 29.3697 32.8074C29.8586 32.4881 30.2934 32.0182 30.6438 31.4303L30.3298 33.1297H32.6581L34.784 21.6473H32.4512L32.4445 21.6415ZM43.1506 21.6415H36.3797L35.9064 24.2008H39.8461L34.6378 30.7158L34.1928 33.1193H41.1821L41.6554 30.56H37.434L42.7222 23.9474L43.1506 21.6415ZM49.1104 27.3252C48.9009 28.4554 48.59 29.305 48.1796 29.8585C47.7691 30.4171 47.272 30.6963 46.6883 30.6963C45.4681 30.6963 45.0671 29.5726 45.4834 27.3252C45.6897 26.208 46.002 25.368 46.4192 24.8023C46.8364 24.2346 47.342 23.9513 47.9365 23.9513C48.5196 23.9513 48.9134 24.2326 49.1163 24.799C49.319 25.3641 49.3172 26.2067 49.1104 27.3239V27.3252ZM50.4733 22.0734C49.9372 21.5901 49.2531 21.3486 48.4186 21.3486C47.5739 21.3486 46.792 21.5888 46.0724 22.0695C45.3558 22.5472 44.7261 23.2602 44.2331 24.152C43.7262 25.055 43.3615 26.1137 43.1376 27.3219C42.9178 28.5255 42.8909 29.5824 43.0613 30.4872C43.2319 31.3902 43.5908 32.0851 44.1291 32.5659C44.6718 33.0504 45.3627 33.2914 46.2106 33.2914C47.045 33.2914 47.8211 33.0484 48.5344 32.5652C49.2477 32.0793 49.8578 31.3895 50.3647 30.48C50.8717 29.5746 51.235 28.5185 51.4593 27.3102C51.6837 26.102 51.7106 25.0472 51.5401 24.1403C51.3696 23.2375 51.0152 22.5425 50.4813 22.0585L50.4733 22.0734ZM58.7852 24.7087L59.3818 21.5844C59.18 21.4349 58.9152 21.357 58.5833 21.357C58.0495 21.357 57.538 21.548 57.0446 21.9351C56.6202 22.2638 56.2594 22.7276 55.9544 23.3083L56.2639 21.6258L55.5879 21.6297H53.928L51.7882 33.1076H54.1492L55.2595 27.1076C55.421 26.2351 55.7118 25.5486 56.1312 25.0614C56.5484 24.5723 57.0688 24.3274 57.6969 24.3274C58.0826 24.3274 58.4415 24.4554 58.7825 24.7106L58.7852 24.7087ZM65.3546 27.3803C65.1527 28.4522 64.8477 29.2706 64.4304 29.8357C64.0132 30.4035 63.5108 30.6866 62.9276 30.6866C62.3444 30.6866 61.9452 30.4009 61.7343 29.8292C61.5189 29.2544 61.5145 28.4262 61.7163 27.3375C61.9182 26.2494 62.2278 25.4148 62.6539 24.8367C63.0801 24.2541 63.5825 23.963 64.1658 23.963C64.74 23.963 65.1258 24.2619 65.3322 24.8658C65.5385 25.47 65.543 26.3079 65.3448 27.3797L65.3546 27.3803ZM66.9957 22.0923C66.5582 21.5857 65.9997 21.3323 65.3223 21.3323C64.7288 21.3323 64.1631 21.5272 63.6265 21.9208C63.0905 22.3138 62.6553 22.8497 62.3211 23.5278L62.3292 23.4499L62.7253 21.6246H60.4194L59.8317 24.801L59.8138 24.9113L57.3913 37.9961H59.7554L60.9757 31.4097C61.0969 31.9954 61.3436 32.4554 61.7204 32.7879C62.0972 33.1193 62.5624 33.2836 63.1156 33.2836C63.802 33.2836 64.4569 33.0432 65.0782 32.5626C65.7018 32.0806 66.2401 31.3869 66.6977 30.4904C67.1553 29.5941 67.495 28.5547 67.7115 27.379C67.9314 26.2015 67.9763 25.1511 67.8507 24.232C67.7228 23.3116 67.4398 22.5989 67.0028 22.0949L66.9957 22.0923ZM74.8378 27.3336C74.6359 28.4184 74.3263 29.2498 73.9091 29.8214C73.492 30.397 72.9895 30.6833 72.4063 30.6833C71.8096 30.6833 71.4059 30.4041 71.1951 29.839C70.9797 29.2739 70.9752 28.4554 71.1726 27.3836C71.37 26.3118 71.6849 25.4739 72.1201 24.8697C72.5553 24.2658 73.0644 23.9643 73.6485 23.9643C74.2317 23.9643 74.6265 24.2567 74.8329 24.8348C75.0392 25.4148 75.0405 26.2481 74.8396 27.3356L74.8378 27.3336ZM75.892 21.6272L75.5901 23.2576C75.46 22.6698 75.2088 22.202 74.8364 21.8545C74.4596 21.5077 73.9976 21.3349 73.4457 21.3349C72.7683 21.3349 72.1142 21.5882 71.4897 22.0949C70.8662 22.6015 70.3189 23.3122 69.8524 24.232C69.3858 25.1517 69.0449 26.2002 68.825 27.3758C68.6075 28.556 68.5648 29.5908 68.6949 30.4911C68.8264 31.3876 69.1094 32.0799 69.5473 32.5633C69.9843 33.0439 70.5477 33.2869 71.2341 33.2869C71.7859 33.2869 72.313 33.1206 72.8132 32.7866C73.3009 32.4659 73.7346 31.9953 74.0841 31.4077L73.7701 33.1082H76.0983L78.2238 21.6304H75.8956L75.892 21.6272ZM87.9986 21.6311L88 21.6278H86.569C86.5232 21.6278 86.4828 21.6311 86.441 21.6324H85.6986L85.3174 22.3988L85.2231 22.5807L85.1827 22.6717L82.1658 28.7567L81.5422 21.6311H79.0713L80.3229 32.4593L77.5595 38H80.0224L80.6908 36.6275C80.7096 36.5873 80.7267 36.5535 80.7491 36.5106L81.5297 34.9061L81.5522 34.8608L85.0482 27.6831L87.9955 21.6421L88 21.6382H87.9986V21.6311Z" fill="#072654"/>
</svg>
