<svg width="90" height="50" viewBox="0 0 90 50" fill="none" xmlns="http://www.w3.org/2000/svg">
<path d="M42.9985 15.196L47.8781 14.116V10L42.9985 11.08V15.196Z" fill="#646FDE"/>
<path d="M43.0161 34.1439H47.8928V16.7289H43.0161V34.1439Z" fill="#646FDE"/>
<path d="M22.3258 29.062C22.3258 23.05 14.8971 24.13 14.8971 21.856L14.9 21.862C14.9 21.076 15.5358 20.77 16.5508 20.758C18.0267 20.758 19.9079 21.223 21.3838 22.054V17.3021C19.7767 16.6421 18.1696 16.3811 16.5625 16.3811C12.6279 16.3811 10 18.517 10 22.087C10 27.679 17.385 26.773 17.385 29.182C17.385 30.115 16.6063 30.421 15.5213 30.421C13.9142 30.421 11.8346 29.728 10.2071 28.804V33.352C12.0096 34.156 13.8383 34.498 15.5125 34.498C19.5463 34.498 22.3258 32.704 22.3258 29.062ZM58.0317 16.3871C56.13 16.3871 54.905 17.3201 54.2254 17.968L53.9717 16.7141H49.6958V40L54.5521 38.932L54.5638 33.223C55.2638 33.757 56.3021 34.495 57.9996 34.495C61.4821 34.495 64.6525 31.858 64.6525 25.447C64.6613 19.582 61.4471 16.3871 58.0317 16.3871ZM56.8737 30.313C55.7362 30.313 55.0567 29.884 54.5871 29.359L54.555 21.853C55.0567 21.274 55.7567 20.854 56.8737 20.854C58.6471 20.854 59.8692 22.924 59.8692 25.561C59.8808 28.276 58.6792 30.313 56.8737 30.313ZM72.9796 16.3871C68.3625 16.3871 65.5479 20.467 65.5479 25.609C65.5479 31.69 68.8642 34.498 73.5892 34.498C75.9108 34.498 77.6492 33.952 78.9733 33.19V29.392C77.6492 30.085 76.1296 30.505 74.2046 30.505C72.3088 30.505 70.6492 29.812 70.4304 27.448H79.9358C79.9592 27.184 80 26.128 80 25.642C80 20.47 77.5938 16.3871 72.9796 16.3871ZM70.3837 23.731C70.3837 21.457 71.7312 20.503 72.9446 20.503C74.1375 20.503 75.4062 21.457 75.4062 23.731H70.3837ZM31.735 21.025V16.7291H28.0483L28.0367 12.3491L23.2971 13.3961L23.2738 29.584C23.2738 32.575 25.4408 34.507 28.3196 34.507C29.9179 34.507 31.0875 34.198 31.735 33.835V29.995C31.1108 30.256 28.0454 31.186 28.0454 28.21V21.025H31.735V21.025ZM41.8413 21.367V16.7291C41.185 16.4891 38.9217 16.0481 37.7842 18.22L37.4896 16.7291H33.2896V34.144H38.1342V22.423C39.2833 20.857 41.22 21.163 41.8413 21.367Z" fill="#646FDE"/>
<path d="M47.8928 25H43.0161V34.144H47.8928V25Z" fill="#5761C1"/>
<path d="M20.3624 25H10.9649C12.9657 27.439 17.3845 27.316 17.3845 29.179C17.3845 30.112 16.6057 30.418 15.5207 30.418C13.9136 30.418 11.834 29.725 10.2065 28.801V33.349C12.009 34.153 13.8378 34.495 15.512 34.495C19.5457 34.495 22.3282 32.698 22.3282 29.059C22.3253 27.037 21.4824 25.816 20.3624 25ZM64.6432 25H59.8511C59.8628 25.183 59.8686 25.369 59.8686 25.558C59.8803 28.276 58.6757 30.31 56.8732 30.31C55.7357 30.31 55.0561 29.878 54.5865 29.356L54.569 25H49.6982V40L54.5545 38.932L54.5661 33.223C55.2661 33.757 56.3045 34.495 58.002 34.495C61.4845 34.495 64.6549 31.858 64.6549 25.447C64.652 25.297 64.649 25.147 64.6432 25ZM79.9849 25H65.559C65.5503 25.201 65.5445 25.405 65.5445 25.609C65.5445 31.69 68.8607 34.498 73.5857 34.498C75.9074 34.498 77.6457 33.952 78.9699 33.19V29.392C77.6457 30.085 76.1261 30.505 74.2011 30.505C72.3053 30.505 70.6457 29.812 70.427 27.448H79.9324C79.9557 27.184 79.9965 26.128 79.9965 25.642H79.9995C79.9995 25.426 79.9936 25.213 79.9849 25ZM28.0478 25H23.282L23.2761 29.584C23.2761 32.575 25.4432 34.507 28.322 34.507C29.9203 34.507 31.0899 34.198 31.7374 33.835V29.995C31.472 30.106 30.7603 30.34 30.034 30.34C29.057 30.34 28.0478 29.917 28.0478 28.21V25V25Z" fill="#5761C1"/>
<path d="M38.1302 25H33.2886V34.144H38.1302V25Z" fill="#5761C1"/>
</svg>
